Patient4_TMGait_0pt4_02_left_04_EMG.mot
version=1
nRows=40
nColumns=33
inDegrees=no
endheader
time	1LAddLong	2LGlutMax	3LGlutMed	4LIliopsoas	5LSemiMemb	6LBicFemLong	7LRecFem	8LVastMed	9LVastLat	10LGasMed	11LTibAnt	12lTibPost	13LPeroneusLong	14LSol	15LExtDigLong	16LFlexDigLong	17RAddLong	18RGlutMax	19RGlutMed	20RIliopsoas	21RSemiMemb	22RBicFemLong	23RRecFem	24RVastMed	25RVastLat	26RGasMed	27RTibAnt	28RTibPost	29RPeroneusLong	30RSol	31RExtDigLong	32RFlexDigLong
5.27	0.001984	0.036621	-0.037842	0.003204	-0.007629	0.019684	-0.018463	0.004425	-0.066986	-0.007172	-0.015869	-0.008545	0.017242	-0.034332	0.053253	-0.005798	-0.018311	0.85968	0.34988	0.034027	-0.026855	0.29221	0.008698	-0.03067	-0.059967	0.1004	-0.035706	0.035095	0.72967	-0.072021	0.002289	-0.011749
5.271	-0.001526	0.02533	-0.042725	0.011749	0.00061	0.01297	-0.035248	0.009308	-0.067291	-0.016937	-0.014954	-0.002136	0.023346	-0.030518	0.02655	-0.005493	0.003052	0.76645	0.13428	-0.10208	-0.033569	0.32364	-0.013275	-0.076447	-0.082245	0.081329	0.035858	0.23071	-0.67474	0.33646	-0.001221	-0.016022
5.272	-0.007935	0.025177	-0.035858	-0.007324	-0.006866	0.037689	-0.029449	0.012665	-0.059357	-0.014648	-0.005188	0.00412	0.028381	-0.023193	0.000305	-0.000153	0.000916	0.61996	-0.084229	-0.11017	0.002289	0.27802	-0.071716	-0.076141	-0.097198	0.042267	0.1268	0.10925	-1.1479	0.95612	0.005646	-0.012207
5.273	0.003052	0.013733	-0.030212	-0.003357	-0.019531	0.037689	-0.032806	0.005035	-0.061646	-0.008392	-0.010376	-0.000916	0.023956	-0.001221	0.018311	0.011597	0.00473	0.54489	-0.38864	0.024414	0.023499	0.19882	-0.11551	-0.029602	-0.04776	0.010071	0.15808	0.025635	-0.40619	0.54489	-0.002289	-0.001984
5.274	0.00412	0.053253	-0.034943	-0.004883	-0.003052	-0.025177	-0.042419	0.009308	-0.06546	-0.011902	0.019684	-0.000458	0.005035	0.006409	0.036926	-0.007019	0.014954	0.5867	0.042725	0.092621	0.046692	0.096741	-0.16098	0.048065	-0.003662	-0.022125	0.15686	0.015106	-0.56091	0.061035	0.002594	-0.000305
5.275	0.006866	0.054474	-0.023499	0.018463	0.016479	-0.005798	-0.046234	0.003204	-0.059509	-0.020142	0.035095	0.00473	-0.002899	-0.016174	0.032501	-0.002289	0.022736	0.61829	0.38162	0.087891	0.053253	-0.028687	-0.1178	0.067444	0.028992	0.005188	0.12787	-0.075378	0.28961	-0.005035	0.000153	-0.001373
5.276	0.001526	0.052338	-0.023041	-0.002289	-0.010834	-0.007477	-0.034332	0.00473	-0.062561	-0.019684	0.010223	0	0.016174	-0.011597	-0.045624	-0.005798	0.019684	0.62241	0.35538	0.016937	0.002289	-0.019073	-0.071869	0.067596	0.001984	0.042572	0.026093	-0.15854	0.63675	-0.049133	0	-0.008698
5.277	-0.007172	0.053406	-0.028076	0.003967	-0.057373	0.000153	-0.055695	0.009918	-0.066376	-0.028687	0.073242	0.003357	0.010834	-0.006104	0.13794	-0.0177	0.001373	0.63278	0.46371	-0.063934	0.005188	-0.07843	-0.037537	0.041199	0.005035	0.07843	-0.091705	0.085602	1.1971	-0.30365	-0.002594	0.00061
5.278	-0.010986	0.053711	-0.037537	0.005188	-0.055542	-0.026093	-0.042725	0.011597	-0.068207	-0.025024	0.087433	0.002594	-0.01236	-0.030975	0.033112	-0.010529	0.007629	0.61706	0.4332	-0.072327	0.05127	-0.20081	-0.026245	-0.010834	-0.00885	0.14023	-0.009003	-0.039063	0.27557	-0.40649	-0.000458	0.002594
5.279	-0.000916	0.03952	-0.028839	0.004272	0.007477	-0.067139	-0.037537	0.004883	-0.062256	-0.005035	0.071106	-0.005188	0.014954	-0.026703	0.14603	-0.010834	0.005951	0.5339	0.20203	-0.015869	0.055084	-0.10956	-0.007019	-0.032959	-0.003357	0.050049	0.13458	-0.13809	-2.8841	-0.3157	-0.003662	-0.008545
5.28	0.020905	0.039368	-0.029144	0.00946	0.036926	-0.056763	-0.060577	0.003204	-0.075073	-0.000916	-0.02655	0.001526	0.04303	0.009155	0.054626	-0.005798	0.000763	0.55359	0.30212	0.024719	0.054932	-0.007019	-0.018616	-0.018463	-0.000305	-0.037537	0.049133	-0.018921	-0.61661	0.042267	-0.00061	-0.013275
5.281	0.016174	0.019989	-0.021515	-0.013428	0.015564	-0.005188	-0.028839	0.001373	-0.094147	0.01236	-0.050812	0.005188	0.06485	0.002136	-0.081177	-0.009308	-0.00061	0.4921	0.13306	0.067444	0.052643	0.049286	-0.013428	-0.010071	0.014191	-0.063934	-0.27115	0.1503	2.2472	-0.65262	-0.001221	-0.009613
5.282	0.012207	0.050812	-0.027466	0.025787	0.007477	0.04364	-0.044403	0.010681	-0.091858	-0.005188	-0.071106	0.002136	0.045319	-0.011902	-0.16144	-0.016174	0.001678	0.43411	0.18814	0.038147	0.079498	-0.001068	-0.1091	-0.010529	0.023041	-0.042877	-0.04425	0.061951	0.37842	-0.39291	0	-0.002899
5.283	0.010834	0.06424	-0.028992	0.004883	-0.006256	0.070038	-0.034332	0.009308	-0.09964	-0.015869	-0.12573	0.006714	0.05127	-0.072174	-0.17441	-0.007324	-0.004272	0.38086	0.084839	0.018158	0.079651	0.01297	-0.14206	0.007629	0.047302	-0.092621	0.027771	0.000458	-0.45319	0.32913	-0.001526	0.006104
5.284	0.014496	0.089264	-0.023193	-0.009308	-0.006714	0.065765	-0.033417	0.011139	-0.092163	-0.022888	-0.06546	0.005493	0.046692	-0.034485	-0.083771	-0.005951	0.005188	0.30914	-0.007172	-0.012665	0.002441	-0.11719	-0.10193	0.046539	0.065155	-0.13092	0.037384	-0.009003	-2.2507	0.38223	0.000153	-0.002594
5.285	0.010529	0.050812	-0.01709	0.007172	-0.012512	0.073853	-0.032806	0.007172	-0.089264	-0.016785	-0.018616	0.00885	0.019836	-0.031128	-0.005798	-0.012817	0.029755	0.34149	0.061188	0.005341	-0.1297	-0.10681	-0.033417	-0.033417	-0.00412	-0.089569	-0.014648	0.023193	-1.6232	0.024414	-0.006104	0.000458
5.286	0.016479	0.097504	-0.051117	0.000916	-0.016174	0.072021	-0.053864	0.014496	-0.087585	-0.024719	-0.010681	0.005188	0.015411	-0.021667	0.017853	-0.010223	0.003815	0.41107	0.19669	0.03418	-0.15472	0.061951	-0.06485	0.010071	-0.028534	-0.14679	-0.048981	-0.055695	0.89798	-0.24384	-0.000763	-0.001221
5.287	0.012512	0.075989	-0.026855	0.012665	-0.044098	0.093842	-0.036163	0.009308	-0.1001	-0.030518	-0.01297	0.009308	0.039978	-0.049896	-0.005341	-0.00885	-0.003662	0.43549	0.53192	0.048218	0.049286	0.045166	-0.091248	0.16586	0.067749	-0.16357	0.013275	-0.082703	0.69061	-0.23727	-0.000153	0.001068
5.288	0.017242	0.048218	-0.016785	-0.001678	-0.012054	0.059357	-0.015564	0.007477	-0.1059	-0.018311	-0.026398	0.009918	0.062408	-0.05249	-0.007629	-0.009766	-0.030975	0.42221	0.71457	-0.037079	0.27496	-0.048828	-0.048981	0.21164	0.061035	-0.24048	0.038147	-0.10391	0.27206	0.024414	-0.004883	-0.005341
5.289	0.007782	0.056152	-0.004883	0.001831	-0.005798	0.053253	-0.021057	0.011139	-0.12009	-0.008698	-0.025177	0.00885	0.055084	-0.037537	-0.009613	-0.007019	-0.015564	0.33203	0.77927	-0.00824	0.2417	-0.11612	-0.046844	0.14358	-0.02594	0.028076	-0.007019	-0.044708	-0.19989	0.22797	-0.003967	-0.018158
5.29	0.002289	0.077515	-0.009766	-0.00824	-0.031128	0.06424	-0.032654	0.00412	-0.13138	0.011749	-0.009155	0.010376	0.033417	-0.014038	0.023956	-0.021057	-0.006256	0.25406	0.80093	0.065918	0.18509	-0.090332	-0.074463	0.071411	-0.050659	0.05127	0.02594	-0.046539	-0.88898	0.10681	-0.001831	-0.025635
5.291	0.005341	0.059204	0.013885	-0.002289	-0.06012	0.071259	-0.037689	0.00946	-0.12848	0.001984	0.005188	0.010529	0.030518	-0.041351	0.085602	-0.004425	-0.005341	0.14465	0.22446	0.044098	0.16174	-0.15182	-0.16449	0.084991	-0.021973	0.061493	-0.057831	0.026398	-0.17563	0.033875	0.000916	-0.018616
5.292	0.001678	0.042877	-0.019836	0.005493	-0.06897	0.063019	-0.047455	0.003052	-0.12192	0.01297	-0.009155	-0.002594	0.055389	-0.035095	0.059052	-0.010376	0.014038	0.12604	0.10971	0.020905	0.15045	-0.20523	-0.19287	0.037994	-0.011292	0.13931	0.013123	0.17517	0.98892	0.093842	0.000305	-0.009308
5.293	0.010376	0.093689	0.03006	0.019684	-0.07843	0.036621	-0.028381	0.008392	-0.099335	-0.02655	0.036163	0.008087	0.078735	-0.015106	0.032501	-0.011749	0.032501	0.34317	0.41	-0.011444	0.036011	-0.18097	-0.13931	-0.070648	-0.050354	0.09491	0.045319	0.007324	1.6945	0.43106	0.001373	-0.006714
5.294	0.018158	0.071716	0.01709	-0.008392	-0.072327	0.033722	-0.034943	0.009613	-0.068054	-0.04364	0.088348	0.016785	0.068054	-0.053711	-0.002747	-0.005035	0.000458	0.22995	0.10223	-0.029907	-0.25024	-0.061188	-0.10178	-0.036163	-0.022583	0.069885	-0.051117	0.000916	0.80185	0.60852	-0.000916	-0.014648
5.295	0.016327	0.065613	-0.00824	0.019073	-0.003662	0.03006	-0.052185	0.00351	-0.030212	-0.057373	0.12787	0.006866	0.041504	-0.057678	0.005951	0.000153	0.002441	0.13702	-0.068359	0.035858	-0.003052	0.021973	-0.046997	-0.08667	0.054932	0.014038	0.11444	0.035095	-1.4961	0.56412	-0.001984	-0.009155
5.296	0.0177	0.054169	-0.019379	0.005035	0.045166	0.029755	-0.041656	0.001984	-0.004272	-0.041046	0.072021	0.005493	0.015411	-0.043182	0.040283	0.007629	0.037537	0.15427	-0.35767	0.003052	0.11749	-0.031433	0.07843	-0.13748	-0.08606	0.004272	0.099792	0.007324	-0.21851	0.44052	0.00061	-0.013885
5.297	0.015564	0.046387	-0.029755	0.00061	0.055237	0.027924	-0.045319	0.006714	-0.000458	-0.062103	-0.034943	0.006409	0.009308	-0.052795	0.017395	0.007324	0.040588	0.10971	-0.24765	-0.050049	0.052643	-0.031586	0.26596	-0.076141	-0.099182	0.063324	-0.096283	-0.006409	2.9156	0.070343	0.001984	-0.007019
5.298	0.014648	0.050659	-0.012512	0.008698	0.024109	0.030365	-0.039368	0.008698	0.012665	-0.077209	-0.10223	0.006866	0.00473	-0.052185	-0.025024	0.013428	0.049133	0.071869	-0.3479	0.00824	0.006866	-0.013275	0.41458	-0.024109	-0.10788	0.0177	-0.10986	-0.015869	1.8266	-0.047455	-0.001221	-0.00061
5.299	0.001068	0.037384	0.011749	-0.004272	0.017395	0.037994	-0.028229	0.002899	0.017548	-0.016022	-0.10284	0.011444	-0.009003	-0.057678	-0.00412	0.001526	0.043182	0.10971	0.1001	-0.075073	-0.008698	0.034027	0.50552	-0.048676	-0.10971	-0.041656	0.018158	-0.010071	-0.11887	-0.16785	-0.003052	-0.004272
5.3	0.011139	0.040894	-0.032349	0	-0.003052	0.018005	-0.037537	0.001678	0.014038	0.025482	-0.089417	0.005341	0.027161	-0.042725	0.058899	0.006104	0.016785	0.018005	0.29495	-0.06897	0.008545	0.0354	0.16419	-0.085297	-0.059814	0.011292	0.13306	-0.014496	-2.0581	-0.15533	-0.002899	-0.006104
5.301	0.008698	0.040588	-0.041504	0.013123	0.009155	-0.00061	-0.048828	0.001831	0.028839	0.03006	0.03067	0.002899	0.057526	-0.050049	0.11185	-0.000153	-0.011139	-0.025482	0.327	-0.011749	0.052338	-0.011139	-0.49027	-0.14923	-0.001373	0.038452	-0.009003	-0.014191	-0.3479	-0.23148	-0.003357	-0.004272
5.302	0.010986	0.054169	-0.052795	0.00473	-0.028076	-0.008087	-0.034637	0.002747	0.030518	0.044098	0.15259	0.003204	0.003662	-0.039673	0.093079	0.005493	-0.008392	-0.055237	0.50842	0.015106	-0.010071	-0.013428	-0.69229	-0.17471	0.052338	0.011597	0.080566	-0.022125	-0.41702	0.03952	0.001068	-0.014954
5.303	0.001831	0.06424	-0.055237	0.009003	-0.014954	-0.012665	-0.045166	0.000763	0.037231	0.033112	0.14725	0.002441	0.012817	-0.032349	0.027161	0.009003	0.005493	-0.037384	-0.061188	0	-0.044403	0.007629	-0.37293	-0.11643	0.040741	-0.016479	0.009003	-0.019684	-0.11261	0.11795	0.001831	-0.011902
5.304	0.013428	0.062714	-0.015106	0.003357	-0.013123	0.009918	-0.026093	0.002594	0.05188	-0.003052	-0.056305	-0.000916	0.048218	-0.042267	0.16663	0.0177	0.00885	-0.029755	-0.14343	-0.060272	-0.072174	0.037842	-0.21805	-0.055084	-0.029449	-0.028687	-0.031891	-0.031281	-0.93491	0.11581	-0.003815	-0.013275
5.305	0.015411	0.055695	0	0.019531	-0.025635	0.004425	-0.032349	0.00473	0.068054	-0.043488	-0.097656	0.00885	0.053864	-0.09491	0.067749	0.004272	-0.008087	-0.066833	-0.12497	-0.027313	0.089111	0.084076	-0.24033	-0.093231	-0.15427	0.061188	-0.059662	-0.032806	0.28397	0.063019	0.002136	-0.018616
5.306	0.008698	0.071259	-0.063477	0.009003	-0.032349	0.004425	-0.023346	0.002441	0.069122	-0.065002	-0.072784	0.007477	0.081482	-0.06897	-0.14099	0.018005	-0.002899	-0.10422	-0.17716	0.00946	0.11856	0.066833	-0.2211	-0.089111	-0.1796	0.037842	0.026093	-0.042267	0.75424	0.074615	-0.00061	-0.010681
5.307	0.014191	0.061188	-0.064392	0	-0.00885	0.012512	-0.025787	0.004272	0.095367	-0.071716	-0.001526	0.005188	0.075684	-0.079651	-0.24918	0.00351	0.003967	-0.16312	0.002594	0.022125	0.052795	0.063934	-0.10956	0.008698	-0.10132	0.013733	-0.00061	0.029755	0.24429	-0.023346	-0.004425	-0.01236
5.308	0.007477	0.079956	-0.1297	0.014496	0.009918	0.049133	-0.018616	0.009918	0.10651	-0.068359	0.084839	0.002594	0.037384	-0.085144	-0.25604	0.006561	0.000763	-0.15427	0.12573	0.006561	0.039063	0.05249	-0.031738	0.033722	-0.015106	0.010834	-0.10056	0.11688	0.19119	-0.23438	0	-0.013885
5.309	0.015717	0.078888	-0.11673	0.001221	-0.019531	-0.005035	-0.01236	0	0.10956	-0.020905	0.033264	-0.000305	0.045776	-0.062561	-0.15396	0.001373	0.005798	-0.24811	-0.16205	-0.028992	0.047455	0.001831	-0.045929	0.044403	0.004425	0.01709	0.07843	0.015564	-0.70633	-0.32516	-0.001678	-0.015106
